<svg id="Layer_1" xmlns="http://www.w3.org/2000/svg" viewBox="0 0 418.12 106.43">
    <defs>
    <style>.cls-1{fill:#231f20;}</style>
    </defs>
    <path class="cls-1" d="M403.51,28.79c0-1,.19-1.95,.58-2.83,.38-.89,.91-1.66,1.57-2.31,.66-.65,1.44-1.17,2.32-1.55,.89-.38,1.83-.58,2.83-.58s1.95,.19,2.83,.58c.89,.38,1.66,.9,2.32,1.55s1.19,1.42,1.57,2.31c.38,.89,.58,1.83,.58,2.83s-.19,1.94-.58,2.82c-.38,.88-.91,1.64-1.57,2.29s-1.44,1.16-2.32,1.54c-.89,.37-1.83,.56-2.83,.56s-1.95-.19-2.83-.56c-.89-.37-1.66-.89-2.32-1.54-.66-.65-1.19-1.42-1.57-2.29-.38-.88-.58-1.82-.58-2.82Zm1.15,0c0,.83,.16,1.62,.48,2.37,.32,.75,.76,1.4,1.31,1.97,.55,.57,1.21,1.01,1.95,1.33,.75,.32,1.55,.48,2.4,.48s1.66-.16,2.4-.48c.75-.32,1.4-.76,1.95-1.33,.56-.57,.99-1.22,1.31-1.97,.32-.75,.48-1.54,.48-2.37s-.16-1.66-.48-2.4c-.32-.75-.76-1.4-1.31-1.95s-1.21-.99-1.95-1.31c-.75-.32-1.55-.48-2.4-.48s-1.66,.16-2.4,.48c-.75,.32-1.4,.76-1.95,1.31-.56,.56-.99,1.21-1.31,1.95-.32,.75-.48,1.55-.48,2.4Zm3.3-4.13h2.88c.38,0,.76,.04,1.12,.13,.36,.09,.69,.22,.98,.42,.29,.19,.52,.44,.69,.74,.17,.3,.26,.67,.26,1.12,0,.6-.17,1.08-.51,1.46-.34,.37-.8,.62-1.38,.75l2.21,3.59h-1.79l-1.92-3.43h-1.06v3.43h-1.47v-8.2Zm2.66,3.59c.43,0,.83-.08,1.22-.24,.38-.16,.58-.49,.58-.98,0-.45-.18-.75-.53-.9-.35-.15-.72-.22-1.11-.22h-1.34v2.34h1.18Z"/><path class="cls-1" d="M71.67,21.51c5.51,0,10.7,1.38,15.55,4.14,4.85,2.76,8.64,6.5,11.36,11.23,2.72,4.73,4.08,9.83,4.08,15.31s-1.37,10.67-4.11,15.47c-2.74,4.8-6.47,8.55-11.2,11.25s-9.94,4.06-15.63,4.06c-8.38,0-15.53-2.98-21.46-8.94-5.93-5.96-8.89-13.2-8.89-21.73,0-9.13,3.35-16.74,10.04-22.83,5.87-5.3,12.62-7.95,20.25-7.95Zm.24,13.8c-4.56,0-8.35,1.58-11.38,4.75-3.03,3.17-4.55,7.22-4.55,12.17s1.5,9.2,4.49,12.35c2.99,3.15,6.79,4.73,11.38,4.73s8.41-1.59,11.46-4.78c3.05-3.19,4.57-7.29,4.57-12.3s-1.5-9.09-4.49-12.22c-3-3.13-6.82-4.7-11.49-4.7Z"/><path class="cls-1" d="M44.95,79.3c-2.98-3-5.35-6.28-7.14-9.82-2.45-.04-6.91-.17-7.31-.17-4.59,0-8.38-1.58-11.38-4.73-3-3.15-4.49-7.27-4.49-12.35,0,0,.03-18.03,.03-18.03h23.58c2.02-3.76,4.72-7.2,8.13-10.3,.92-.83,1.85-1.6,2.81-2.33H14.66V.05H0S.03,52.27,.03,52.29c0,8.52,1.56,15.7,7.49,21.66,5.93,5.96,14.48,9.01,22.86,9.01,2.56,0,12.19,.01,18.74,0-1.44-1.1-2.83-2.32-4.17-3.66Z"/><path class="cls-1" d="M370.21,21.51c5.51,0,10.7,1.38,15.55,4.14,4.85,2.76,8.64,6.5,11.36,11.23,2.72,4.73,4.08,9.83,4.08,15.31s-1.37,10.67-4.11,15.47c-2.74,4.8-6.47,8.55-11.2,11.25s-9.94,4.06-15.63,4.06c-8.38,0-15.53-2.98-21.46-8.94-5.93-5.96-8.89-13.2-8.89-21.73,0-9.13,3.35-16.74,10.04-22.83,5.87-5.3,12.62-7.95,20.25-7.95Zm.24,13.8c-4.56,0-8.35,1.58-11.38,4.75-3.03,3.17-4.55,7.22-4.55,12.17s1.5,9.2,4.49,12.35c2.99,3.15,6.79,4.73,11.38,4.73s8.41-1.59,11.46-4.78c3.05-3.19,4.57-7.29,4.57-12.3s-1.5-9.09-4.49-12.22c-3-3.13-6.82-4.7-11.49-4.7Z"/><path class="cls-1" d="M199.65,36.88c-2.72-4.73-6.51-8.47-11.36-11.23-4.85-2.76-10.04-4.14-15.55-4.14-7.63,0-14.38,2.65-20.25,7.95-6.68,6.08-10.03,13.67-10.04,22.77h0v54.19h14.61v-27.82c4.65,2.9,9.9,4.35,15.74,4.35s10.9-1.35,15.63-4.06,8.46-6.45,11.2-11.25c2.74-4.8,4.11-9.95,4.11-15.47s-1.36-10.58-4.08-15.31Zm-15.26,27.66c-3.05,3.19-6.87,4.78-11.46,4.78s-8.38-1.58-11.38-4.73c-3-3.15-4.49-7.27-4.49-12.35s1.51-9,4.55-12.17c3.03-3.17,6.82-4.75,11.38-4.75s8.49,1.57,11.49,4.7c2.99,3.13,4.49,7.21,4.49,12.22s-1.52,9.11-4.57,12.3Z"/><path class="cls-1" d="M334.99,0h-14.56V26.02c-4.75-3-9.99-4.5-15.73-4.5s-10.7,1.38-15.55,4.14c-4.85,2.76-8.64,6.5-11.36,11.23-2.72,4.73-4.08,9.83-4.08,15.31s1.37,10.67,4.11,15.47c2.74,4.8,6.47,8.55,11.2,11.25s9.94,4.06,15.63,4.06c8.38,0,15.53-2.98,21.46-8.94,5.93-5.96,8.89-13.2,8.89-21.73,0-.03,0-.05,0-.07h0V0Zm-19.1,64.59c-2.99,3.15-6.79,4.73-11.38,4.73s-8.41-1.59-11.46-4.78c-3.05-3.19-4.57-7.29-4.57-12.3s1.5-9.09,4.49-12.22c3-3.13,6.82-4.7,11.49-4.7s8.35,1.58,11.38,4.75c3.03,3.17,4.55,7.22,4.55,12.17s-1.5,9.2-4.49,12.35Z"/><path class="cls-1" d="M260.59,56.63h8.21c.21-1.46,.32-2.93,.32-4.44,0-5.48-1.36-10.58-4.08-15.31-2.72-4.73-6.51-8.47-11.36-11.23-4.85-2.76-10.04-4.14-15.55-4.14-7.63,0-14.38,2.65-20.25,7.95-6.7,6.09-10.04,13.7-10.04,22.83,0,8.52,2.96,15.76,8.89,21.73,5.93,5.96,13.08,8.94,21.46,8.94,5.69,0,10.9-1.35,15.63-4.06s8.46-6.45,11.2-11.25c.88-1.54,1.6-3.12,2.2-4.73h-16.09c-.41,.56-.85,1.11-1.34,1.62-3.05,3.19-6.87,4.78-11.46,4.78s-8.38-1.58-11.38-4.73c-2.08-2.19-3.42-4.85-4.05-7.96h37.71Zm-22.22-21.31c4.66,0,8.49,1.57,11.49,4.7,1.61,1.68,2.77,3.65,3.51,5.87h-29.92c.75-2.19,1.92-4.13,3.54-5.82,3.03-3.17,6.82-4.75,11.38-4.75Z"/><path class="cls-1" d="M138.73,35.34c2.07-4.2,4.97-8.02,8.71-11.42,.24-.22,2.74-2.15,2.99-2.36-3.42-.04-8.99-.04-12.57-.04-7.63,0-14.38,2.65-20.25,7.95-6.65,6.05-10,13.72-10.04,22.77v30.85h14.61v-30.85c0-4.92,1.52-9.01,4.54-12.17,3.03-3.17,6.82-4.75,11.38-4.75,.21,0,.42,.01,.62,.02Z"/>
</svg>